<svg xmlns="http://www.w3.org/2000/svg" viewBox="0 0 128 128" role="img" aria-labelledby="rage-logo-title rage-logo-desc">
  <title id="rage-logo-title">Rage UI logo</title>
  <desc id="rage-logo-desc">A dark rounded square containing a hexagon vault with a central keyhole mark.</desc>
  <defs>
    <linearGradient id="g-vault" x1="24" y1="18" x2="104" y2="110" gradientUnits="userSpaceOnUse">
      <stop offset="0" stop-color="#1b101f"/>
      <stop offset="0.45" stop-color="#0a0908"/>
      <stop offset="1" stop-color="#19100d"/>
    </linearGradient>
    <linearGradient id="g-hex" x1="28" y1="22" x2="100" y2="106" gradientUnits="userSpaceOnUse">
      <stop offset="0" stop-color="#bf5af2"/>
      <stop offset="0.55" stop-color="#ff5e8a"/>
      <stop offset="1" stop-color="#ffc799"/>
    </linearGradient>
  </defs>
  <rect width="128" height="128" rx="30" fill="url(#g-vault)"/>
  <g transform="translate(64,64) scale(1.15) translate(-64,-64)">
    <path d="M64 22 90 36v28L64 80 38 64V36L64 22z" fill="none" stroke="url(#g-hex)" stroke-width="4" stroke-linejoin="round"/>
    <path d="M57 46h14a3 3 0 013 3v12H54V49a3 3 0 013-3z" fill="rgba(255,255,255,.06)" stroke="#ffc799" stroke-width="3"/>
    <path d="M60 46v-5c0-4 2-7 6-7s6 3 6 7v5" fill="none" stroke="#ffc799" stroke-width="3" stroke-linecap="round"/>
    <circle cx="64" cy="55" r="3" fill="#ffc799"/>
    <path d="M64 58v5" stroke="#ffc799" stroke-width="3" stroke-linecap="round"/>
  </g>
</svg>
